<svg width="15" height="12" viewBox="0 0 15 12" fill="none" xmlns="http://www.w3.org/2000/svg">
<path d="M14.4293 6.81675C14.8178 6.47254 14.8144 5.91745 14.4217 5.57803L9.39467 1.23351C9.00193 0.894098 8.36753 0.897986 7.97899 1.24219C7.59044 1.58639 7.59385 2.14149 7.98658 2.48091L11.3012 5.34284L1.71339 5.4016C1.16024 5.40499 0.715747 5.79876 0.718714 6.28276C0.72168 6.76677 1.17097 7.15506 1.72411 7.15167L11.3088 7.09292L8.03576 9.99523C7.64722 10.3394 7.65062 10.8945 8.04335 11.2339C8.43609 11.5734 9.07049 11.5695 9.45903 11.2253L14.4324 6.81946L14.4293 6.81675Z" fill="#222222"/>
</svg>
