<svg width="16" height="18" viewBox="0 0 16 18" fill="none" xmlns="http://www.w3.org/2000/svg">
<g clip-path="url(#clip0_88_577)">
<path d="M8.01807 0.195692L9.2832 7.3037L15.4493 8.76175C15.4969 8.77358 15.5395 8.80384 15.5701 8.84748C15.6007 8.89112 15.6173 8.94552 15.6173 9.0016C15.6173 9.05769 15.6007 9.11208 15.5701 9.15572C15.5395 9.19936 15.4969 9.22962 15.4493 9.24145L9.2832 10.6963L8.01807 17.8028C8.00847 17.8582 7.98248 17.9081 7.94453 17.944C7.90659 17.9799 7.85903 17.9995 7.80996 17.9995C7.76088 17.9995 7.71333 17.9799 7.67538 17.944C7.63744 17.9081 7.61145 17.8582 7.60184 17.8028L6.33671 10.6963L0.169207 9.23909C0.121084 9.22801 0.0777776 9.19806 0.0466596 9.15433C0.0155416 9.1106 -0.00146484 9.05579 -0.00146484 8.99923C-0.00146484 8.94268 0.0155416 8.88787 0.0466596 8.84414C0.0777776 8.80041 0.121084 8.77045 0.169207 8.75938L6.33671 7.3037L7.60184 0.19727C7.61211 0.142446 7.63836 0.093331 7.67623 0.0581033C7.7141 0.0228756 7.76129 0.00366211 7.80996 0.00366211C7.85862 0.00366211 7.90582 0.0228756 7.94369 0.0581033C7.98155 0.093331 8.00781 0.142446 8.01807 0.19727V0.195692Z" fill="#222222"/>
</g>
<defs>
<clipPath id="clip0_88_577">
<rect width="15.6183" height="18" fill="white"/>
</clipPath>
</defs>
</svg>
