<svg width="24" height="24" viewBox="0 0 24 24" fill="none" xmlns="http://www.w3.org/2000/svg">
<g clip-path="url(#clip0_6_116)">
<path d="M2.70469 9.04688L3.14531 9.81562C3.53437 10.4953 4.17188 10.9969 4.92656 11.2125L7.64062 11.9859C8.44687 12.2156 9 12.9516 9 13.7906V15.6609C9 16.1766 9.29062 16.6453 9.75 16.875C10.2094 17.1047 10.5 17.5734 10.5 18.0891V19.9172C10.5 20.6484 11.1984 21.1781 11.9016 20.9766C12.6562 20.7609 13.2422 20.1562 13.4344 19.3922L13.5656 18.8672C13.7625 18.075 14.2781 17.3953 14.9859 16.9922L15.3656 16.7766C16.0687 16.3781 16.5 15.6281 16.5 14.8219V14.4328C16.5 13.8375 16.2609 13.2656 15.8391 12.8438L15.6562 12.6609C15.2344 12.2391 14.6625 12 14.0672 12H12.0469C11.5266 12 11.0109 11.8641 10.5562 11.6063L8.93906 10.6828C8.7375 10.5656 8.58281 10.3781 8.50781 10.1578C8.35781 9.70781 8.55937 9.22031 8.98594 9.00937L9.2625 8.86875C9.57188 8.71406 9.93281 8.68594 10.2609 8.79844L11.3484 9.15937C11.7328 9.28594 12.1547 9.14062 12.375 8.80781C12.5953 8.47969 12.5719 8.04375 12.3187 7.73906L11.6812 6.975C11.2125 6.4125 11.2172 5.59219 11.6953 5.03906L12.4313 4.18125C12.8438 3.69844 12.9094 3.00938 12.5953 2.46094L12.4828 2.26406C12.3187 2.25469 12.1594 2.25 11.9953 2.25C7.64531 2.25 3.95625 5.10469 2.70469 9.04688ZM21.75 12C21.75 10.275 21.3 8.65312 20.5125 7.24219L19.3125 7.725C18.5766 8.02031 18.1969 8.84063 18.4453 9.59063L19.2375 11.9672C19.4016 12.4547 19.8 12.825 20.2969 12.9469L21.6609 13.2891C21.7172 12.8672 21.7453 12.4359 21.7453 12H21.75ZM0 12C0 8.8174 1.26428 5.76516 3.51472 3.51472C5.76516 1.26428 8.8174 0 12 0C15.1826 0 18.2348 1.26428 20.4853 3.51472C22.7357 5.76516 24 8.8174 24 12C24 15.1826 22.7357 18.2348 20.4853 20.4853C18.2348 22.7357 15.1826 24 12 24C8.8174 24 5.76516 22.7357 3.51472 20.4853C1.26428 18.2348 0 15.1826 0 12Z" fill="#857A7A"/>
</g>
<defs>
<clipPath id="clip0_6_116">
<rect width="24" height="24" fill="white"/>
</clipPath>
</defs>
</svg>
