<svg width="100" height="40" viewBox="0 0 100 40" fill="none" xmlns="http://www.w3.org/2000/svg">
<rect width="100" height="40" rx="20" fill="white"/>
<g clip-path="url(#clip0_99_95)">
<path d="M68.0112 19.8315H65.9213C64.573 19.8315 63.8315 20.8427 63.8315 22.5955V28.8652H59.7865V19.8315H58.1011C56.7528 19.8315 56.0112 20.8427 56.0112 22.5955V28.8652H51.9663V16.4607H56.0112V18.3483C56.6854 16.8652 57.5618 16.4607 58.9101 16.4607H63.8315V18.3483C64.5056 16.8652 65.382 16.4607 66.7303 16.4607H68.0787L68.0112 19.8315ZM51.0225 23.6067H42.6629C42.8652 25.0225 43.7416 25.764 45.1573 25.764C46.236 25.764 46.9775 25.2921 47.2472 24.5506L50.8202 25.5618C49.9438 27.7191 47.7865 29 45.1573 29C40.7753 29 38.7528 25.5618 38.7528 22.5955C38.7528 19.6966 40.5056 16.2584 44.8876 16.2584C49.5393 16.2584 51.0899 19.764 51.0899 22.3933C51.0899 23 51.0899 23.3371 51.0225 23.6067ZM47.1798 21.2472C47.1124 20.1685 46.3034 19.2247 44.9551 19.2247C43.6742 19.2247 42.9326 19.764 42.6629 21.2472H47.1798ZM31.7416 28.8652H35.2472L39.6966 16.5281H35.6517L33.4944 23.7416L31.3371 16.4607H27.2921L31.7416 28.8652ZM15.2921 28.8652H19.2697V19.8315H23.1124V28.8652H27.0899V16.4607H19.2697V15.7191C19.2697 14.9101 19.8764 14.3708 20.7528 14.3708H23.1124V11H20.1461C17.2472 11 15.2921 12.8202 15.2921 15.4494V16.4607H13V19.8315H15.2921V28.8652Z" fill="#404145"/>
<path d="M70.5056 29.2021C71.8539 29.2021 73 28.0561 73 26.7078C73 25.3594 71.8539 24.2134 70.5056 24.2134C69.1573 24.2134 68.0112 25.3594 68.0112 26.7078C68.0112 28.0561 69.1573 29.2021 70.5056 29.2021Z" fill="#1DBF73"/>
</g>
<g clip-path="url(#clip1_99_95)">
<path d="M89.4324 16.776C89.4669 16.2581 89.0744 15.8656 88.5565 15.9001L81.927 16.3421C81.409 16.3766 80.9605 16.8252 80.9259 17.3431C80.8914 17.861 81.2839 18.2536 81.8018 18.219L86.1712 17.9257L79.3915 24.7055C79.0003 25.0966 78.9608 25.6891 79.3031 26.0314C79.6453 26.3736 80.2378 26.3341 80.629 25.943L87.4065 19.1654L87.1176 23.5304C87.0831 24.0483 87.4756 24.4408 87.9935 24.4063C88.5114 24.3718 88.96 23.9232 88.9946 23.4052L89.4365 16.7757L89.4324 16.776Z" fill="#404145"/>
</g>
<defs>
<clipPath id="clip0_99_95">
<rect width="60" height="18.2022" fill="white" transform="translate(13 11)"/>
</clipPath>
<clipPath id="clip1_99_95">
<rect width="18" height="18" fill="white" transform="translate(74 20.728) rotate(-45)"/>
</clipPath>
</defs>
</svg>
