<svg width="33" height="33" viewBox="0 0 33 33" fill="none" xmlns="http://www.w3.org/2000/svg">
<circle cx="16.5" cy="16.5" r="16.5" fill="#222222"/>
<g clip-path="url(#clip0_6_133)">
<path d="M17.2405 8.19569L18.6986 15.3037L25.805 16.7617C25.8598 16.7736 25.9089 16.8038 25.9442 16.8475C25.9794 16.8911 25.9986 16.9455 25.9986 17.0016C25.9986 17.0577 25.9794 17.1121 25.9442 17.1557C25.9089 17.1994 25.8598 17.2296 25.805 17.2415L18.6986 18.6963L17.2405 25.8028C17.2294 25.8582 17.1995 25.9081 17.1557 25.944C17.112 25.9799 17.0572 25.9995 17.0007 25.9995C16.9441 25.9995 16.8893 25.9799 16.8456 25.944C16.8018 25.9081 16.7719 25.8582 16.7608 25.8028L15.3027 18.6963L8.19474 17.2391C8.13928 17.228 8.08937 17.1981 8.05351 17.1543C8.01765 17.1106 7.99805 17.0558 7.99805 16.9992C7.99805 16.9427 8.01765 16.8879 8.05351 16.8441C8.08937 16.8004 8.13928 16.7705 8.19474 16.7594L15.3027 15.3037L16.7608 8.19727C16.7726 8.14245 16.8029 8.09333 16.8465 8.0581C16.8902 8.02288 16.9446 8.00366 17.0007 8.00366C17.0567 8.00366 17.1111 8.02288 17.1548 8.0581C17.1984 8.09333 17.2287 8.14245 17.2405 8.19727V8.19569Z" fill="white"/>
</g>
<defs>
<clipPath id="clip0_6_133">
<rect width="18" height="18" fill="white" transform="translate(8 8)"/>
</clipPath>
</defs>
</svg>
