<svg xmlns="http://www.w3.org/2000/svg" version="1.1" xmlns:xlink="http://www.w3.org/1999/xlink" width="200" height="200"><svg xmlns="http://www.w3.org/2000/svg" version="1.1" xmlns:xlink="http://www.w3.org/1999/xlink" viewBox="0 0 200 200"><rect width="200" height="200" fill="url('#gradient')"></rect><defs><linearGradient id="SvgjsLinearGradient1001" gradientTransform="rotate(45 0.5 0.5)"><stop offset="0%" stop-color="#e5e0d8"></stop><stop offset="100%" stop-color="#e5e0d8"></stop></linearGradient></defs><g><g fill="#222222" transform="matrix(5.156583872065329,0,0,5.156583872065329,20.45988680657662,136.6626868853483)" stroke="#5b8d84" stroke-width="0"><path d="M1.07-14.22L5.58-14.22L8.75-4.33L11.91-14.22L16.43-14.22L16.43 0L12.99 0L12.99-3.32L13.32-10.12L9.88 0L7.62 0L4.17-10.13L4.50-3.32L4.50 0L1.07 0L1.07-14.22ZM23.28 0L18.60 0L18.60-14.22L23.18-14.22Q25.07-14.22 26.57-13.36Q28.08-12.51 28.92-10.95Q29.77-9.39 29.78-7.46L29.78-7.46L29.78-6.81Q29.78-4.85 28.95-3.31Q28.13-1.76 26.63-0.88Q25.13-0.01 23.28 0L23.28 0ZM23.18-11.57L22.03-11.57L22.03-2.64L23.22-2.64Q24.70-2.64 25.49-3.69Q26.28-4.74 26.28-6.81L26.28-6.81L26.28-7.42Q26.28-9.48 25.49-10.53Q24.70-11.57 23.18-11.57L23.18-11.57Z"></path></g></g></svg><style>@media (prefers-color-scheme: light) { :root { filter: none; } }
@media (prefers-color-scheme: dark) { :root { filter: none; } }
</style></svg>